<svg width="162" height="25" viewBox="0 0 162 25" fill="none" xmlns="http://www.w3.org/2000/svg">
<path d="M14.3977 0.727272H19.3182V15.8409C19.3182 17.5379 18.9129 19.0227 18.1023 20.2955C17.2992 21.5682 16.1742 22.5606 14.7273 23.2727C13.2803 23.9773 11.5947 24.3295 9.67045 24.3295C7.73864 24.3295 6.04924 23.9773 4.60227 23.2727C3.1553 22.5606 2.0303 21.5682 1.22727 20.2955C0.424242 19.0227 0.0227273 17.5379 0.0227273 15.8409V0.727272H4.94318V15.4205C4.94318 16.3068 5.13636 17.0947 5.52273 17.7841C5.91667 18.4735 6.4697 19.0152 7.18182 19.4091C7.89394 19.803 8.72348 20 9.67045 20C10.625 20 11.4545 19.803 12.1591 19.4091C12.8712 19.0152 13.4205 18.4735 13.8068 17.7841C14.2008 17.0947 14.3977 16.3068 14.3977 15.4205V0.727272ZM23.2756 24V6.54545H27.9688V9.59091H28.1506C28.4688 8.50758 29.0028 7.68939 29.7528 7.13636C30.5028 6.57576 31.3665 6.29545 32.3438 6.29545C32.5862 6.29545 32.8475 6.31061 33.1278 6.34091C33.4081 6.37121 33.6544 6.41288 33.8665 6.46591V10.7614C33.6392 10.6932 33.3248 10.6326 32.9233 10.5795C32.5218 10.5265 32.1544 10.5 31.821 10.5C31.1089 10.5 30.4725 10.6553 29.9119 10.9659C29.3589 11.2689 28.9195 11.6932 28.5938 12.2386C28.2756 12.7841 28.1165 13.4129 28.1165 14.125V24H23.2756ZM36.4602 24V0.727272H41.3011V9.47727H41.4489C41.661 9.00758 41.9678 8.5303 42.3693 8.04545C42.7784 7.55303 43.3087 7.14394 43.9602 6.81818C44.6193 6.48485 45.4375 6.31818 46.4148 6.31818C47.6875 6.31818 48.8617 6.65152 49.9375 7.31818C51.0133 7.97727 51.8731 8.97348 52.517 10.3068C53.161 11.6326 53.483 13.2955 53.483 15.2955C53.483 17.2424 53.1686 18.8864 52.5398 20.2273C51.9186 21.5606 51.0701 22.572 49.9943 23.2614C48.9261 23.9432 47.7292 24.2841 46.4034 24.2841C45.464 24.2841 44.6648 24.1288 44.0057 23.8182C43.3542 23.5076 42.8201 23.1174 42.4034 22.6477C41.9867 22.1705 41.6686 21.6894 41.4489 21.2045H41.233V24H36.4602ZM41.1989 15.2727C41.1989 16.3106 41.3428 17.2159 41.6307 17.9886C41.9186 18.7614 42.3352 19.3636 42.8807 19.7955C43.4261 20.2197 44.089 20.4318 44.8693 20.4318C45.6572 20.4318 46.3239 20.2159 46.8693 19.7841C47.4148 19.3447 47.8277 18.7386 48.108 17.9659C48.3958 17.1856 48.5398 16.2879 48.5398 15.2727C48.5398 14.2652 48.3996 13.3788 48.1193 12.6136C47.839 11.8485 47.4261 11.25 46.8807 10.8182C46.3352 10.3864 45.6648 10.1705 44.8693 10.1705C44.0814 10.1705 43.4148 10.3788 42.8693 10.7955C42.3314 11.2121 41.9186 11.803 41.6307 12.5682C41.3428 13.3333 41.1989 14.2348 41.1989 15.2727ZM61.6903 24.3295C60.5767 24.3295 59.5843 24.1364 58.7131 23.75C57.8419 23.3561 57.1525 22.7765 56.6449 22.0114C56.1449 21.2386 55.8949 20.2765 55.8949 19.125C55.8949 18.1553 56.0729 17.3409 56.429 16.6818C56.785 16.0227 57.2699 15.4924 57.8835 15.0909C58.4972 14.6894 59.1941 14.3864 59.9744 14.1818C60.7623 13.9773 61.5881 13.8333 62.4517 13.75C63.4669 13.6439 64.285 13.5455 64.9062 13.4545C65.5275 13.3561 65.9782 13.2121 66.2585 13.0227C66.5388 12.8333 66.679 12.553 66.679 12.1818V12.1136C66.679 11.3939 66.4517 10.8371 65.9972 10.4432C65.5502 10.0492 64.9138 9.85227 64.0881 9.85227C63.2169 9.85227 62.5237 10.0455 62.0085 10.4318C61.4934 10.8106 61.1525 11.2879 60.9858 11.8636L56.5085 11.5C56.7358 10.4394 57.1828 9.52273 57.8494 8.75C58.5161 7.9697 59.3759 7.37121 60.429 6.95454C61.4896 6.5303 62.7169 6.31818 64.1108 6.31818C65.0805 6.31818 66.0085 6.43182 66.8949 6.65909C67.7888 6.88636 68.5805 7.23864 69.2699 7.71591C69.9669 8.19318 70.5161 8.80682 70.9176 9.55682C71.3191 10.2992 71.5199 11.1894 71.5199 12.2273V24H66.929V21.5795H66.7926C66.5123 22.125 66.1373 22.6061 65.6676 23.0227C65.1979 23.4318 64.6335 23.7538 63.9744 23.9886C63.3153 24.2159 62.554 24.3295 61.6903 24.3295ZM63.0767 20.9886C63.7888 20.9886 64.4176 20.8485 64.9631 20.5682C65.5085 20.2803 65.9366 19.8939 66.2472 19.4091C66.5578 18.9242 66.7131 18.375 66.7131 17.7614V15.9091C66.5616 16.0076 66.3532 16.0985 66.0881 16.1818C65.8305 16.2576 65.5388 16.3295 65.2131 16.3977C64.8873 16.4583 64.5616 16.5152 64.2358 16.5682C63.91 16.6136 63.6146 16.6553 63.3494 16.6932C62.7813 16.7765 62.285 16.9091 61.8608 17.0909C61.4366 17.2727 61.107 17.5189 60.8722 17.8295C60.6373 18.1326 60.5199 18.5114 60.5199 18.9659C60.5199 19.625 60.7585 20.1288 61.2358 20.4773C61.7206 20.8182 62.3343 20.9886 63.0767 20.9886ZM80.1165 13.9091V24H75.2756V6.54545H79.8892V9.625H80.0938C80.4801 8.60985 81.1278 7.80682 82.0369 7.21591C82.946 6.61742 84.0483 6.31818 85.3438 6.31818C86.5559 6.31818 87.6127 6.58333 88.5142 7.11364C89.4157 7.64394 90.1165 8.40151 90.6165 9.38636C91.1165 10.3636 91.3665 11.5303 91.3665 12.8864V24H86.5256V13.75C86.5331 12.6818 86.2604 11.8485 85.7074 11.25C85.1544 10.6439 84.393 10.3409 83.4233 10.3409C82.7718 10.3409 82.196 10.4811 81.696 10.7614C81.2036 11.0417 80.8172 11.4508 80.5369 11.9886C80.2642 12.5189 80.1241 13.1591 80.1165 13.9091ZM92.9176 4.78409V0.727272H112.031V4.78409H104.906V24H100.043V4.78409H92.9176ZM120.443 24.3409C118.678 24.3409 117.152 23.9659 115.864 23.2159C114.583 22.4583 113.595 21.4053 112.898 20.0568C112.201 18.7008 111.852 17.1288 111.852 15.3409C111.852 13.5379 112.201 11.9621 112.898 10.6136C113.595 9.25758 114.583 8.20454 115.864 7.45454C117.152 6.69697 118.678 6.31818 120.443 6.31818C122.208 6.31818 123.731 6.69697 125.011 7.45454C126.299 8.20454 127.292 9.25758 127.989 10.6136C128.686 11.9621 129.034 13.5379 129.034 15.3409C129.034 17.1288 128.686 18.7008 127.989 20.0568C127.292 21.4053 126.299 22.4583 125.011 23.2159C123.731 23.9659 122.208 24.3409 120.443 24.3409ZM120.466 20.5909C121.269 20.5909 121.939 20.3636 122.477 19.9091C123.015 19.447 123.42 18.8182 123.693 18.0227C123.973 17.2273 124.114 16.322 124.114 15.3068C124.114 14.2917 123.973 13.3864 123.693 12.5909C123.42 11.7955 123.015 11.1667 122.477 10.7045C121.939 10.2424 121.269 10.0114 120.466 10.0114C119.655 10.0114 118.973 10.2424 118.42 10.7045C117.875 11.1667 117.462 11.7955 117.182 12.5909C116.909 13.3864 116.773 14.2917 116.773 15.3068C116.773 16.322 116.909 17.2273 117.182 18.0227C117.462 18.8182 117.875 19.447 118.42 19.9091C118.973 20.3636 119.655 20.5909 120.466 20.5909ZM132.182 24V6.54545H136.875V9.59091H137.057C137.375 8.50758 137.909 7.68939 138.659 7.13636C139.409 6.57576 140.273 6.29545 141.25 6.29545C141.492 6.29545 141.754 6.31061 142.034 6.34091C142.314 6.37121 142.561 6.41288 142.773 6.46591V10.7614C142.545 10.6932 142.231 10.6326 141.83 10.5795C141.428 10.5265 141.061 10.5 140.727 10.5C140.015 10.5 139.379 10.6553 138.818 10.9659C138.265 11.2689 137.826 11.6932 137.5 12.2386C137.182 12.7841 137.023 13.4129 137.023 14.125V24H132.182ZM149.662 18.9773L149.673 13.1705H150.378L155.969 6.54545H161.526L154.014 15.3182H152.866L149.662 18.9773ZM145.276 24V0.727272H150.116V24H145.276ZM156.185 24L151.048 16.3977L154.276 12.9773L161.855 24H156.185Z" fill="white"/>
</svg>
